<svg xmlns="http://www.w3.org/2000/svg" width="800" height="570"><g transform="translate(30, 20)"><g><g transform="translate(0, 490)" fill="none" font-size="10" font-family="sans-serif" text-anchor="middle"><path class="domain" stroke="#000" d="M0.5000,5V0.5000H750.5000V5"></path><g class="tick" opacity="1" transform="translate(0.5,0)"><line stroke="#000" y2="5"></line><text fill="#000" y="10" dy="0.71em">0</text></g><g class="tick" opacity="1" transform="translate(76.5,0)"><line stroke="#000" y2="5"></line><text fill="#000" y="10" dy="0.71em">10</text></g><g class="tick" opacity="1" transform="translate(152.5,0)"><line stroke="#000" y2="5"></line><text fill="#000" y="10" dy="0.71em">20</text></g><g class="tick" opacity="1" transform="translate(227.5,0)"><line stroke="#000" y2="5"></line><text fill="#000" y="10" dy="0.71em">30</text></g><g class="tick" opacity="1" transform="translate(303.5,0)"><line stroke="#000" y2="5"></line><text fill="#000" y="10" dy="0.71em">40</text></g><g class="tick" opacity="1" transform="translate(379.5,0)"><line stroke="#000" y2="5"></line><text fill="#000" y="10" dy="0.71em">50</text></g><g class="tick" opacity="1" transform="translate(455.5,0)"><line stroke="#000" y2="5"></line><text fill="#000" y="10" dy="0.71em">60</text></g><g class="tick" opacity="1" transform="translate(530.5,0)"><line stroke="#000" y2="5"></line><text fill="#000" y="10" dy="0.71em">70</text></g><g class="tick" opacity="1" transform="translate(606.5,0)"><line stroke="#000" y2="5"></line><text fill="#000" y="10" dy="0.71em">80</text></g><g class="tick" opacity="1" transform="translate(682.5,0)"><line stroke="#000" y2="5"></line><text fill="#000" y="10" dy="0.71em">90</text></g></g><g fill="none" font-size="10" font-family="sans-serif" text-anchor="end"><path class="domain" stroke="#000" d="M-5,490.5000H0.5000V0.5000H-5"></path><g class="tick" opacity="1" transform="translate(0,490.5)"><line stroke="#000" x2="-5"></line><text fill="#000" x="-10" dy="0.32em">0</text></g><g class="tick" opacity="1" transform="translate(0,439.5)"><line stroke="#000" x2="-5"></line><text fill="#000" x="-10" dy="0.32em">5</text></g><g class="tick" opacity="1" transform="translate(0,388.5)"><line stroke="#000" x2="-5"></line><text fill="#000" x="-10" dy="0.32em">10</text></g><g class="tick" opacity="1" transform="translate(0,337.5)"><line stroke="#000" x2="-5"></line><text fill="#000" x="-10" dy="0.32em">15</text></g><g class="tick" opacity="1" transform="translate(0,286.5)"><line stroke="#000" x2="-5"></line><text fill="#000" x="-10" dy="0.32em">20</text></g><g class="tick" opacity="1" transform="translate(0,235.5)"><line stroke="#000" x2="-5"></line><text fill="#000" x="-10" dy="0.32em">25</text></g><g class="tick" opacity="1" transform="translate(0,184.5)"><line stroke="#000" x2="-5"></line><text fill="#000" x="-10" dy="0.32em">30</text></g><g class="tick" opacity="1" transform="translate(0,133.5)"><line stroke="#000" x2="-5"></line><text fill="#000" x="-10" dy="0.32em">35</text></g><g class="tick" opacity="1" transform="translate(0,82.5)"><line stroke="#000" x2="-5"></line><text fill="#000" x="-10" dy="0.32em">40</text></g><g class="tick" opacity="1" transform="translate(0,31.5)"><line stroke="#000" x2="-5"></line><text fill="#000" x="-10" dy="0.32em">45</text></g></g><g fill="none" stroke-width="1.5"><path stroke="steelblue" d="M0,490L1.3333,488.3333C2.6667,486.6667,5.3333,483.3333,7.8333,481.6667C10.3333,480,12.6667,480,15.1667,480C17.6667,480,20.3333,480,22.8333,478.3333C25.3333,476.6667,27.6667,473.3333,30.1667,471.6667C32.6667,470,35.3333,470,37.8333,470C40.3333,470,42.6667,470,45.1667,468.1667C47.6667,466.3333,50.3333,462.6667,53,460.8333C55.6667,459,58.3333,459,60.8333,459C63.3333,459,65.6667,459,68.1667,457.3333C70.6667,455.6667,73.3333,452.3333,75.8333,450.6667C78.3333,449,80.6667,449,83.1667,447.3333C85.6667,445.6667,88.3333,442.3333,90.8333,440.6667C93.3333,439,95.6667,439,98.1667,439C100.6667,439,103.3333,439,106,437.3333C108.6667,435.6667,111.3333,432.3333,113.8333,430.6667C116.3333,429,118.6667,429,121.1667,429C123.6667,429,126.3333,429,128.8333,427.3333C131.3333,425.6667,133.6667,422.3333,136.1667,420.6667C138.6667,419,141.3333,419,144,417.1667C146.6667,415.3333,149.3333,411.6667,151.8333,409.8333C154.3333,408,156.6667,408,159.1667,406.3333C161.6667,404.6667,164.3333,401.3333,166.8333,399.6667C169.3333,398,171.6667,398,174.1667,396.3333C176.6667,394.6667,179.3333,391.3333,181.8333,389.6667C184.3333,388,186.6667,388,189.1667,388C191.6667,388,194.3333,388,197,386.3333C199.6667,384.6667,202.3333,381.3333,204.8333,379.6667C207.3333,378,209.6667,378,212.1667,376.3333C214.6667,374.6667,217.3333,371.3333,219.8333,369.6667C222.3333,368,224.6667,368,227.1667,368C229.6667,368,232.3333,368,234.8333,366.1667C237.3333,364.3333,239.6667,360.6667,242.1667,358.8333C244.6667,357,247.3333,357,250,355.3333C252.6667,353.6667,255.3333,350.3333,257.8333,348.6667C260.3333,347,262.6667,347,265.1667,345.3333C267.6667,343.6667,270.3333,340.3333,272.8333,338.6667C275.3333,337,277.6667,337,280.1667,335.3333C282.6667,333.6667,285.3333,330.3333,287.8333,328.6667C290.3333,327,292.6667,327,295.1667,325.1667C297.6667,323.3333,300.3333,319.6667,303,317.8333C305.6667,316,308.3333,316,310.8333,314.3333C313.3333,312.6667,315.6667,309.3333,318.1667,307.6667C320.6667,306,323.3333,306,325.8333,304.3333C328.3333,302.6667,330.6667,299.3333,333.1667,297.6667C335.6667,296,338.3333,296,340.8333,294.3333C343.3333,292.6667,345.6667,289.3333,348.1667,287.6667C350.6667,286,353.3333,286,356,284.3333C358.6667,282.6667,361.3333,279.3333,363.8333,277.6667C366.3333,276,368.6667,276,371.1667,274.1667C373.6667,272.3333,376.3333,268.6667,378.8333,266.8333C381.3333,265,383.6667,265,386.1667,263.3333C388.6667,261.6667,391.3333,258.3333,394,256.6667C396.6667,255,399.3333,255,401.8333,253.3333C404.3333,251.6667,406.6667,248.3333,409.1667,246.6667C411.6667,245,414.3333,245,416.8333,243.3333C419.3333,241.6667,421.6667,238.3333,424.1667,236.6667C426.6667,235,429.3333,235,431.8333,233.3333C434.3333,231.6667,436.6667,228.3333,439.1667,226.6667C441.6667,225,444.3333,225,447,223.1667C449.6667,221.3333,452.3333,217.6667,454.8333,215.8333C457.3333,214,459.6667,214,462.1667,212.3333C464.6667,210.6667,467.3333,207.3333,469.8333,205.6667C472.3333,204,474.6667,204,477.1667,202.3333C479.6667,200.6667,482.3333,197.3333,484.8333,194C487.3333,190.6667,489.6667,187.3333,492.1667,185.6667C494.6667,184,497.3333,184,500,184C502.6667,184,505.3333,184,507.8333,182.3333C510.3333,180.6667,512.6667,177.3333,515.1667,175.6667C517.6667,174,520.3333,174,522.8333,172.1667C525.3333,170.3333,527.6667,166.6667,530.1667,163.1667C532.6667,159.6667,535.3333,156.3333,537.8333,154.6667C540.3333,153,542.6667,153,545.1667,153C547.6667,153,550.3333,153,553,151.3333C555.6667,149.6667,558.3333,146.3333,560.8333,143C563.3333,139.6667,565.6667,136.3333,568.1667,134.6667C570.6667,133,573.3333,133,575.8333,131.3333C578.3333,129.6667,580.6667,126.3333,583.1667,124.6667C585.6667,123,588.3333,123,590.8333,121.1667C593.3333,119.3333,595.6667,115.6667,598.1667,113.8333C600.6667,112,603.3333,112,606,110.3333C608.6667,108.6667,611.3333,105.3333,613.8333,103.6667C616.3333,102,618.6667,102,621.1667,100.3333C623.6667,98.6667,626.3333,95.3333,628.8333,92C631.3333,88.6667,633.6667,85.3333,636.1667,83.6667C638.6667,82,641.3333,82,644,80.1667C646.6667,78.3333,649.3333,74.6667,651.8333,72.8333C654.3333,71,656.6667,71,659.1667,69.3333C661.6667,67.6667,664.3333,64.3333,666.8333,62.6667C669.3333,61,671.6667,61,674.1667,59.3333C676.6667,57.6667,679.3333,54.3333,681.8333,52.6667C684.3333,51,686.6667,51,689.1667,49.3333C691.6667,47.6667,694.3333,44.3333,697,42.6667C699.6667,41,702.3333,41,704.8333,39.3333C707.3333,37.6667,709.6667,34.3333,712.1667,32.6667C714.6667,31,717.3333,31,719.8333,29.1667C722.3333,27.3333,724.6667,23.6667,727.1667,20.1667C729.6667,16.6667,732.3333,13.3333,734.8333,11.6667C737.3333,10,739.6667,10,742.1667,8.3333C744.6667,6.6667,747.3333,3.3333,748.6667,1.6667L750,0"></path><path stroke="darkorange" d="M0,490L1.3333,488.3333C2.6667,486.6667,5.3333,483.3333,7.8333,481.6667C10.3333,480,12.6667,480,15.1667,480C17.6667,480,20.3333,480,22.8333,480C25.3333,480,27.6667,480,30.1667,478.3333C32.6667,476.6667,35.3333,473.3333,37.8333,471.6667C40.3333,470,42.6667,470,45.1667,470C47.6667,470,50.3333,470,53,468.1667C55.6667,466.3333,58.3333,462.6667,60.8333,460.8333C63.3333,459,65.6667,459,68.1667,459C70.6667,459,73.3333,459,75.8333,459C78.3333,459,80.6667,459,83.1667,457.3333C85.6667,455.6667,88.3333,452.3333,90.8333,450.6667C93.3333,449,95.6667,449,98.1667,449C100.6667,449,103.3333,449,106,447.3333C108.6667,445.6667,111.3333,442.3333,113.8333,440.6667C116.3333,439,118.6667,439,121.1667,439C123.6667,439,126.3333,439,128.8333,437.3333C131.3333,435.6667,133.6667,432.3333,136.1667,430.6667C138.6667,429,141.3333,429,144,429C146.6667,429,149.3333,429,151.8333,427.3333C154.3333,425.6667,156.6667,422.3333,159.1667,420.6667C161.6667,419,164.3333,419,166.8333,419C169.3333,419,171.6667,419,174.1667,419C176.6667,419,179.3333,419,181.8333,417.1667C184.3333,415.3333,186.6667,411.6667,189.1667,409.8333C191.6667,408,194.3333,408,197,408C199.6667,408,202.3333,408,204.8333,406.3333C207.3333,404.6667,209.6667,401.3333,212.1667,399.6667C214.6667,398,217.3333,398,219.8333,398C222.3333,398,224.6667,398,227.1667,398C229.6667,398,232.3333,398,234.8333,398C237.3333,398,239.6667,398,242.1667,396.3333C244.6667,394.6667,247.3333,391.3333,250,389.6667C252.6667,388,255.3333,388,257.8333,388C260.3333,388,262.6667,388,265.1667,386.3333C267.6667,384.6667,270.3333,381.3333,272.8333,379.6667C275.3333,378,277.6667,378,280.1667,378C282.6667,378,285.3333,378,287.8333,378C290.3333,378,292.6667,378,295.1667,376.3333C297.6667,374.6667,300.3333,371.3333,303,369.6667C305.6667,368,308.3333,368,310.8333,368C313.3333,368,315.6667,368,318.1667,366.1667C320.6667,364.3333,323.3333,360.6667,325.8333,358.8333C328.3333,357,330.6667,357,333.1667,357C335.6667,357,338.3333,357,340.8333,357C343.3333,357,345.6667,357,348.1667,355.3333C350.6667,353.6667,353.3333,350.3333,356,348.6667C358.6667,347,361.3333,347,363.8333,347C366.3333,347,368.6667,347,371.1667,347C373.6667,347,376.3333,347,378.8333,345.3333C381.3333,343.6667,383.6667,340.3333,386.1667,338.6667C388.6667,337,391.3333,337,394,335.3333C396.6667,333.6667,399.3333,330.3333,401.8333,328.6667C404.3333,327,406.6667,327,409.1667,327C411.6667,327,414.3333,327,416.8333,327C419.3333,327,421.6667,327,424.1667,325.1667C426.6667,323.3333,429.3333,319.6667,431.8333,317.8333C434.3333,316,436.6667,316,439.1667,316C441.6667,316,444.3333,316,447,314.3333C449.6667,312.6667,452.3333,309.3333,454.8333,307.6667C457.3333,306,459.6667,306,462.1667,306C464.6667,306,467.3333,306,469.8333,304.3333C472.3333,302.6667,474.6667,299.3333,477.1667,297.6667C479.6667,296,482.3333,296,484.8333,296C487.3333,296,489.6667,296,492.1667,296C494.6667,296,497.3333,296,500,294.3333C502.6667,292.6667,505.3333,289.3333,507.8333,287.6667C510.3333,286,512.6667,286,515.1667,286C517.6667,286,520.3333,286,522.8333,284.3333C525.3333,282.6667,527.6667,279.3333,530.1667,277.6667C532.6667,276,535.3333,276,537.8333,276C540.3333,276,542.6667,276,545.1667,276C547.6667,276,550.3333,276,553,274.1667C555.6667,272.3333,558.3333,268.6667,560.8333,266.8333C563.3333,265,565.6667,265,568.1667,265C570.6667,265,573.3333,265,575.8333,263.3333C578.3333,261.6667,580.6667,258.3333,583.1667,256.6667C585.6667,255,588.3333,255,590.8333,255C593.3333,255,595.6667,255,598.1667,255C600.6667,255,603.3333,255,606,253.3333C608.6667,251.6667,611.3333,248.3333,613.8333,246.6667C616.3333,245,618.6667,245,621.1667,245C623.6667,245,626.3333,245,628.8333,245C631.3333,245,633.6667,245,636.1667,243.3333C638.6667,241.6667,641.3333,238.3333,644,236.6667C646.6667,235,649.3333,235,651.8333,235C654.3333,235,656.6667,235,659.1667,235C661.6667,235,664.3333,235,666.8333,233.3333C669.3333,231.6667,671.6667,228.3333,674.1667,226.6667C676.6667,225,679.3333,225,681.8333,225C684.3333,225,686.6667,225,689.1667,223.1667C691.6667,221.3333,694.3333,217.6667,697,215.8333C699.6667,214,702.3333,214,704.8333,214C707.3333,214,709.6667,214,712.1667,214C714.6667,214,717.3333,214,719.8333,212.3333C722.3333,210.6667,724.6667,207.3333,727.1667,205.6667C729.6667,204,732.3333,204,734.8333,204C737.3333,204,739.6667,204,742.1667,204C744.6667,204,747.3333,204,748.6667,204L750,204"></path></g></g></g></svg>